<svg width="24" height="24" viewBox="0 0 24 24" fill="none" xmlns="http://www.w3.org/2000/svg">
<path d="M9.99335 5.0018C9.76166 5.00135 9.53713 5.08254 9.35872 5.2313C9.25831 5.31506 9.17532 5.41793 9.11448 5.53402C9.05364 5.65011 9.01616 5.77714 9.00419 5.90782C8.99221 6.03851 9.00598 6.17029 9.0447 6.29562C9.08341 6.42094 9.14632 6.53735 9.22981 6.63818L13.6722 11.9863L9.38847 17.3444C9.3061 17.4465 9.24459 17.5639 9.20747 17.69C9.17036 17.8161 9.15837 17.9482 9.17219 18.079C9.18601 18.2097 9.22537 18.3364 9.28802 18.4518C9.35066 18.5672 9.43535 18.669 9.53721 18.7513C9.63981 18.8421 9.75996 18.9107 9.89012 18.9526C10.0203 18.9945 10.1576 19.0088 10.2936 18.9948C10.4295 18.9807 10.5611 18.9385 10.6801 18.8709C10.7991 18.8032 10.9029 18.7116 10.985 18.6016L15.7744 12.6149C15.9203 12.4364 16 12.2124 16 11.9813C16 11.7502 15.9203 11.5263 15.7744 11.3477L10.8164 5.36101C10.7169 5.24026 10.5905 5.14481 10.4475 5.0824C10.3045 5.01999 10.1489 4.99238 9.99335 5.0018Z" fill="white"/>
</svg>
